<svg xmlns="http://www.w3.org/2000/svg" version="1.1" xmlns:xlink="http://www.w3.org/1999/xlink" width="512" height="512" x="0" y="0" viewBox="0 0 512 512" style="enable-background:new 0 0 512 512" xml:space="preserve" class=""><g><path d="M271 0h60.333v60.333H271zM60.333.172H12.844C5.584 1.22 0 7.45 0 15v45.506h60.333zM90.333 0h60.333v60.333H90.333zM0 180.839h60.333v60.333H0zM0 90.506h60.333v60.333H0zM173.164 295.989l18.784-18.785 42.78 42.78-18.784 18.785zM499.155.172h-47.489v60.333H512V15c0-7.55-5.584-13.78-12.845-14.828z" fill="#ffffff" opacity="1" data-original="#000000" class=""></path><path d="M90.334 421.667h331.333V90.333H90.334zm155.06-240.273 40-40c5.857-5.857 15.355-5.857 21.213 0l64 64c5.858 5.857 5.858 15.355 0 21.213l-40 40c-5.858 5.858-15.355 5.858-21.213 0l-64-64c-5.858-5.858-5.858-15.356 0-21.213zm-104 104 40-40c5.857-5.857 15.355-5.857 21.213 0l64 64c5.858 5.857 5.858 15.355 0 21.213l-40 40c-5.858 5.858-15.355 5.858-21.213 0l-64-64c-5.858-5.858-5.858-15.356 0-21.213zM361.333 0h60.333v60.333h-60.333zM0 271.172h60.333v60.333H0z" fill="#ffffff" opacity="1" data-original="#000000" class=""></path><path d="m277.163 192.01 18.784-18.784 42.78 42.78-18.784 18.785zM180.667 0H241v60.333h-60.333zM0 361.506h60.333v60.333H0zM451.667 361.506H512v60.333h-60.333zM451.667 512H497c8.284 0 15-6.716 15-15v-45.161h-60.333zM451.667 90.506H512v60.333h-60.333zM451.667 180.839H512v60.333h-60.333zM451.667 271.172H512v60.333h-60.333zM0 497c0 8.284 6.716 15 15 15h45.333v-60.161H0zM90.333 451.667h60.333V512H90.333zM361.333 451.667h60.333V512h-60.333zM180.667 451.667H241V512h-60.333zM271 451.667h60.333V512H271z" fill="#ffffff" opacity="1" data-original="#000000" class=""></path></g></svg>